<svg xmlns="http://www.w3.org/2000/svg" viewBox="0 0 7521 1610">
<rect width="100%" height="100%" fill="#FFFFFF"/>
<g fill="#0A0A0A"><path transform="translate(80,1510) scale(1,-1)" d="M795 212Q1062 212 1166 480L1423 383Q1340 179 1179.5 79.5Q1019 -20 795 -20Q455 -20 269.5 172.5Q84 365 84 711Q84 1058 263.0 1244.0Q442 1430 782 1430Q1030 1430 1186.0 1330.5Q1342 1231 1405 1038L1145 967Q1112 1073 1015.5 1135.5Q919 1198 788 1198Q588 1198 484.5 1074.0Q381 950 381 711Q381 468 487.5 340.0Q594 212 795 212Z"/><path transform="translate(1599,1510) scale(1,-1)" d="M137 0V1409H432V228H1188V0Z"/><path transform="translate(2830,1510) scale(1,-1)" d="M1507 711Q1507 491 1420.0 324.0Q1333 157 1171.0 68.5Q1009 -20 793 -20Q461 -20 272.5 175.5Q84 371 84 711Q84 1050 272.0 1240.0Q460 1430 795 1430Q1130 1430 1318.5 1238.0Q1507 1046 1507 711ZM1206 711Q1206 939 1098.0 1068.5Q990 1198 795 1198Q597 1198 489.0 1069.5Q381 941 381 711Q381 479 491.5 345.5Q602 212 793 212Q991 212 1098.5 342.0Q1206 472 1206 711Z"/><path transform="translate(4443,1510) scale(1,-1)" d="M723 -20Q432 -20 277.5 122.0Q123 264 123 528V1409H418V551Q418 384 497.5 297.5Q577 211 731 211Q889 211 974.0 301.5Q1059 392 1059 561V1409H1354V543Q1354 275 1188.5 127.5Q1023 -20 723 -20Z"/><path transform="translate(5962,1510) scale(1,-1)" d="M1393 715Q1393 497 1307.5 334.5Q1222 172 1065.5 86.0Q909 0 707 0H137V1409H647Q1003 1409 1198.0 1229.5Q1393 1050 1393 715ZM1096 715Q1096 942 978.0 1061.5Q860 1181 641 1181H432V228H682Q872 228 984.0 359.0Q1096 490 1096 715Z"/></g>
<rect x="-140.8" y="700.2" width="7802.7" height="132.5" fill="#FFFFFF"/>
</svg>